<svg xmlns="http://www.w3.org/2000/svg" viewBox="0 0 876 329" width="876" height="329">
	<defs>
		<clipPath clipPathUnits="userSpaceOnUse" id="cp1">
			<path d="M-119 -238L1003.52 -238L1003.52 555.71L-119 555.71L-119 -238Z" />
		</clipPath>
	</defs>
	<style>
		tspan { white-space:pre }
		.shp0 { fill: #1a171b } 
	</style>
	<g id="g10">
		<g id="g12">
			<g id="Clip-Path: g14" clip-path="url(#cp1)">
				<g id="g14">
					<g id="g20">
						<path id="path22" class="shp0" d="M102.69 143.56C105.07 143.22 107.48 142.98 109.96 142.98C121.56 142.98 132.22 146.93 140.79 153.48C155.08 134.35 163.59 110.67 163.77 85.05C131.55 86.48 105.44 111.7 102.69 143.56Z" />
					</g>
					<g id="g24">
						<path id="path26" class="shp0" d="M59.42 199.63C59.2 197.74 59.07 195.82 59.07 193.87C59.07 172.16 72.76 153.63 91.93 146.34C93.38 107.47 124.54 76.15 163.35 74.46C163.03 70.62 162.5 66.83 161.81 63.1L31.26 63.1L31.26 199.02C36.67 199.79 42.19 200.22 47.81 200.22C51.73 200.22 55.6 200.01 59.42 199.63Z" />
					</g>
					<g id="g28">
						<path id="path30" class="shp0" d="M108.05 195.56C97.06 201.54 85.08 205.9 72.44 208.41C78.29 223.44 92.88 234.14 109.96 234.14C122.49 234.14 133.7 228.38 141.09 219.38C127.98 214.59 116.57 206.3 108.05 195.56Z" />
					</g>
					<g id="g32">
						<path id="path34" class="shp0" d="M148.55 160.79C156.19 169.7 160.84 181.24 160.84 193.87C160.84 200.48 159.54 206.78 157.24 212.58C160.31 213.04 163.43 213.34 166.63 213.34C179.83 213.34 192.12 209.32 202.34 202.46L202.34 95.87C194.15 90.36 184.64 86.66 174.38 85.42C174.12 113.71 164.53 139.81 148.55 160.79Z" />
					</g>
					<g id="g36">
						<path id="path38" class="shp0" d="M109.96 153.6C107.47 153.6 105.04 153.86 102.67 154.3C103.46 164.09 106.45 173.25 111.15 181.32C119.61 175.78 127.32 169.18 134.05 161.69C127.33 156.63 119 153.6 109.96 153.6Z" />
					</g>
					<g id="g40">
						<path id="path42" class="shp0" d="M151.99 222.5C148.94 226.98 145.13 230.88 140.85 234.17L202.34 234.17L202.34 214.87C191.72 220.67 179.55 223.96 166.63 223.96C161.61 223.96 156.73 223.45 151.99 222.5Z" />
					</g>
					<g id="g44">
						<path id="path46" class="shp0" d="M61.75 210.05C57.17 210.55 52.52 210.84 47.81 210.84C42.2 210.84 36.68 210.43 31.26 209.72L31.26 234.17L79 234.17C71.09 228.07 65 219.71 61.75 210.05Z" />
					</g>
					<g id="g48">
						<path id="path50" class="shp0" d="M69.68 193.87C69.68 195.29 69.76 196.7 69.9 198.08C81.29 195.87 92.08 192 102.02 186.72C96.93 178.01 93.53 168.2 92.32 157.73C78.94 164.27 69.68 177.99 69.68 193.87Z" />
					</g>
					<g id="g52">
						<path id="path54" class="shp0" d="M172.59 63.1C173.23 66.9 173.72 70.75 174.01 74.66C184.2 75.66 193.76 78.78 202.34 83.46L202.34 63.1L172.59 63.1Z" />
					</g>
					<g id="g56">
						<path id="path58" class="shp0" d="M146.75 210.16C148.97 205.17 150.23 199.67 150.23 193.87C150.23 184.54 147 175.95 141.65 169.12C134.43 177.09 126.21 184.12 117.18 190.06C124.86 199.3 135.08 206.34 146.75 210.16Z" />
					</g>
					<g id="g60">
						<path id="path62" class="shp0" d="M49.37 281.82C47.21 279.79 45.15 278.9 42.67 278.9C37.79 278.9 33.74 283.09 33.74 288.13C33.74 293.07 37.79 297.15 42.7 297.15C45.15 297.15 47.24 296.25 49.37 294.26L49.37 297.32C47.18 298.81 45.09 299.47 42.7 299.47C36.46 299.47 31.25 294.3 31.25 288.09C31.25 281.76 36.46 276.58 42.83 276.58C45.29 276.58 47.14 277.21 49.37 278.77L49.37 281.82Z" />
					</g>
					<g id="g64">
						<path id="path66" class="shp0" d="M84.43 296.78L84.43 299.07L68.57 299.07L80.64 279.24L70.13 279.24L70.13 276.94L84.73 276.94L72.68 296.78L84.43 296.78Z" />
					</g>
					<g id="g68">
						<path id="path70" class="shp0" d="M107.68 279.24L107.68 285.84L116.4 285.84L116.4 288.13L107.68 288.13L107.68 296.78L116.64 296.78L116.64 299.07L105.19 299.07L105.19 276.94L116.64 276.94L116.64 279.24L107.68 279.24Z" />
					</g>
					<g id="g72">
						<path id="path74" class="shp0" d="M154.71 281.82C152.55 279.79 150.5 278.9 148.01 278.9C143.13 278.9 139.09 283.09 139.09 288.13C139.09 293.07 143.13 297.15 148.04 297.15C150.5 297.15 152.59 296.25 154.71 294.26L154.71 297.32C152.52 298.81 150.43 299.47 148.04 299.47C141.81 299.47 136.6 294.3 136.6 288.09C136.6 281.76 141.81 276.58 148.18 276.58C150.63 276.58 152.49 277.21 154.71 278.77L154.71 281.82Z" />
					</g>
					<g id="g76">
						<path id="path78" class="shp0" d="M189.81 285.97L189.81 276.94L192.29 276.94L192.29 299.07L189.81 299.07L189.81 288.26L178.52 288.26L178.52 299.07L176.03 299.07L176.03 276.94L178.52 276.94L178.52 285.97L189.81 285.97Z" />
					</g>
					<g id="g80">
						<path id="path82" class="shp0" d="M249.73 281.29C248.6 279.5 247.64 278.9 245.92 278.9C243.86 278.9 242.27 280.37 242.27 282.32C242.27 283.28 242.73 284.08 243.66 284.71C244.46 285.24 244.46 285.24 247.48 286.57C251.03 288.13 252.49 289.88 252.49 292.67C252.49 296.49 249.4 299.47 245.46 299.47C241.97 299.47 239.48 297.38 238.65 293.77L241.04 293.11C241.31 294.23 241.5 294.76 241.94 295.36C242.73 296.49 244.1 297.15 245.55 297.15C248.01 297.15 250 295.23 250 292.8C250 291.45 249.4 290.41 248.17 289.65C247.34 289.12 247.34 289.12 244.26 287.73C241.08 286.3 239.78 284.71 239.78 282.28C239.78 279.04 242.44 276.58 245.98 276.58C248.47 276.58 250.36 277.74 251.69 280.03L249.73 281.29Z" />
					</g>
					<g id="g84">
						<path id="path86" class="shp0" d="M290.7 281.82C288.54 279.79 286.48 278.9 283.99 278.9C279.12 278.9 275.07 283.09 275.07 288.13C275.07 293.07 279.12 297.15 284.03 297.15C286.48 297.15 288.57 296.25 290.7 294.26L290.7 297.32C288.51 298.81 286.42 299.47 284.03 299.47C277.79 299.47 272.58 294.3 272.58 288.09C272.58 281.76 277.79 276.58 284.16 276.58C286.62 276.58 288.47 277.21 290.7 278.77L290.7 281.82Z" />
					</g>
					<path id="path88" class="shp0" d="M314.51 299.07L312.02 299.07L312.02 276.94L314.51 276.94L314.51 299.07Z" />
					<g id="g90">
						<path id="path92" class="shp0" d="M339.51 279.24L339.51 285.84L348.24 285.84L348.24 288.13L339.51 288.13L339.51 296.78L348.47 296.78L348.47 299.07L337.02 299.07L337.02 276.94L348.47 276.94L348.47 279.24L339.51 279.24Z" />
					</g>
					<g id="g94">
						<path id="path96" class="shp0" d="M369.79 276.02L387.01 294.1L387.01 276.94L389.5 276.94L389.5 300.08L372.28 282.03L372.28 299.07L369.79 299.07L369.79 276.02Z" />
					</g>
					<g id="g98">
						<path id="path100" class="shp0" d="M428.91 281.82C426.75 279.79 424.7 278.9 422.21 278.9C417.33 278.9 413.28 283.09 413.28 288.13C413.28 293.07 417.33 297.15 422.24 297.15C424.7 297.15 426.78 296.25 428.91 294.26L428.91 297.32C426.72 298.81 424.63 299.47 422.24 299.47C416 299.47 410.79 294.3 410.79 288.09C410.79 281.76 416 276.58 422.37 276.58C424.82 276.58 426.69 277.21 428.91 278.77L428.91 281.82Z" />
					</g>
					<g id="g102">
						<path id="path104" class="shp0" d="M452.72 279.24L452.72 285.84L461.45 285.84L461.45 288.13L452.72 288.13L452.72 296.78L461.68 296.78L461.68 299.07L450.24 299.07L450.24 276.94L461.68 276.94L461.68 279.24L452.72 279.24Z" />
					</g>
					<g id="g106">
						<path id="path108" class="shp0" d="M510.55 279.24L510.55 285.84L517.89 285.84L517.89 288.13L510.55 288.13L510.55 299.07L508.07 299.07L508.07 276.94L518.12 276.94L518.12 279.24L510.55 279.24Z" />
					</g>
					<g id="g110">
						<path id="path112" fill-rule="evenodd" class="shp0" d="M561.01 288.03C561.01 294.36 555.8 299.47 549.39 299.47C546.25 299.47 543.03 298.01 540.84 295.59C538.98 293.5 537.98 290.88 537.98 287.89C537.98 281.79 543.29 276.58 549.53 276.58C555.8 276.58 561.01 281.76 561.01 288.03ZM540.47 287.89C540.47 290.62 541.43 292.87 543.29 294.63C544.99 296.22 547.24 297.15 549.43 297.15C554.48 297.15 558.52 293.11 558.52 288.03C558.52 282.98 554.51 278.9 549.5 278.9C544.55 278.9 540.47 282.98 540.47 287.89Z" />
					</g>
					<g id="g114">
						<path id="path116" class="shp0" d="M584.83 290.52C584.83 292.8 584.99 293.8 585.56 294.76C586.42 296.16 588.34 297.15 590.23 297.15C592.09 297.15 594.02 296.16 594.88 294.76C595.44 293.8 595.61 292.8 595.61 290.52L595.61 276.94L598.1 276.94L598.1 291.18C598.1 293.57 597.7 295.06 596.63 296.42C595.18 298.31 592.76 299.47 590.23 299.47C587.71 299.47 585.22 298.31 583.8 296.42C582.73 295.06 582.34 293.6 582.34 291.18L582.34 276.94L584.83 276.94L584.83 290.52Z" />
					</g>
					<g id="g118">
						<path id="path120" class="shp0" d="M620.65 276.02L637.87 294.1L637.87 276.94L640.36 276.94L640.36 300.08L623.13 282.03L623.13 299.07L620.65 299.07L620.65 276.02Z" />
					</g>
					<g id="g122">
						<path id="path124" fill-rule="evenodd" class="shp0" d="M662.88 276.94L667.42 276.94C671.01 276.94 673.43 277.71 675.55 279.5C678.01 281.56 679.37 284.58 679.37 287.99C679.37 291.47 678.01 294.43 675.49 296.52C673.3 298.34 670.97 299.07 667.39 299.07L662.88 299.07L662.88 276.94ZM667.52 296.78C670.24 296.78 672.2 296.16 673.86 294.76C675.78 293.13 676.88 290.72 676.88 288.03C676.88 285.31 675.78 282.85 673.89 281.26C672.24 279.87 670.24 279.24 667.52 279.24L665.37 279.24L665.37 296.78L667.52 296.78Z" />
					</g>
					<g id="g126">
						<path id="path128" fill-rule="evenodd" class="shp0" d="M702.38 292.8L699.73 299.07L697.04 299.07L707.23 275.89L717.18 299.07L714.46 299.07L711.84 292.8L702.38 292.8ZM707.2 281.66L703.42 290.52L710.88 290.52L707.2 281.66Z" />
					</g>
					<g id="g130">
						<path id="path132" class="shp0" d="M741.06 299.07L738.57 299.07L738.57 279.24L733.23 279.24L733.23 276.94L746.44 276.94L746.44 279.24L741.06 279.24L741.06 299.07Z" />
					</g>
					<path id="path134" class="shp0" d="M769.05 299.07L766.56 299.07L766.56 276.94L769.05 276.94L769.05 299.07Z" />
					<g id="g136">
						<path id="path138" fill-rule="evenodd" class="shp0" d="M813.36 288.03C813.36 294.36 808.15 299.47 801.74 299.47C798.59 299.47 795.37 298.01 793.18 295.59C791.32 293.5 790.33 290.88 790.33 287.89C790.33 281.79 795.64 276.58 801.87 276.58C808.15 276.58 813.36 281.76 813.36 288.03ZM792.82 287.89C792.82 290.62 793.78 292.87 795.64 294.63C797.33 296.22 799.59 297.15 801.78 297.15C806.82 297.15 810.87 293.11 810.87 288.03C810.87 282.98 806.85 278.9 801.85 278.9C796.9 278.9 792.82 282.98 792.82 287.89Z" />
					</g>
					<g id="g140">
						<path id="path142" class="shp0" d="M834.69 276.02L851.91 294.1L851.91 276.94L854.4 276.94L854.4 300.08L837.18 282.03L837.18 299.07L834.69 299.07L834.69 276.02Z" />
					</g>
					<g id="g144">
						<path id="path146" class="shp0" d="M415.71 152.18C415.71 174.25 413.4 185.29 406.22 197.61C392.61 221.23 363.34 237.15 333.57 237.15C285.05 237.15 245 197.36 245 149.35C245 100.58 285.05 60.79 334.34 60.79C353.85 60.79 372.84 67.21 387.99 79.27C394.92 84.66 399.8 90.06 408.52 100.83L399.54 107.76C392.35 98.27 388.5 93.91 383.11 89.54C370.02 77.98 351.53 71.32 333.82 71.32C291.72 71.32 256.3 107.25 256.3 149.61C256.3 191.72 291.47 226.63 333.31 226.63C358.21 226.63 384.39 212.76 395.95 193.77C401.08 185.55 403.13 177.08 403.65 162.45L343.58 162.45L343.58 152.18L415.71 152.18Z" />
					</g>
					<g id="g148">
						<path id="path150" fill-rule="evenodd" class="shp0" d="M461.68 178.11L438.84 234.32L426.52 234.32L498.4 57.97L569.76 234.32L557.18 234.32L534.59 178.11L461.68 178.11ZM498.4 86.72L465.79 167.84L530.48 167.84L498.4 86.72Z" />
					</g>
					<g id="g152">
						<path id="path154" class="shp0" d="M675.28 51.03L643.19 24.08L652.43 16.89L675.28 35.89L698.13 16.89L707.11 24.08L675.28 51.03ZM733.04 98.27C725.09 89.54 720.98 85.95 713.01 81.58C701.2 74.9 687.6 71.32 675.28 71.32C633.7 71.32 598.26 107.51 598.26 149.61C598.26 172.2 607.76 192.23 624.97 206.86C639.85 219.43 658.08 226.63 675.28 226.63C688.89 226.63 705.31 221.75 718.15 213.53C723.54 210.45 726.62 207.62 733.04 200.95L733.04 215.84C714.05 230.73 696.59 237.15 676.05 237.15C627.79 237.15 586.72 196.85 586.72 149.1C586.72 101.09 627.28 60.79 675.54 60.79C697.1 60.79 715.07 67.72 733.04 82.86L733.04 98.27Z" />
					</g>
					<g id="g156">
						<path id="path158" fill-rule="evenodd" class="shp0" d="M854.73 234.32L841.13 234.32L786.19 153.46L781.06 153.46L781.06 234.32L770.02 234.32L770.02 63.11L794.15 63.11C811.61 63.11 821.36 65.41 830.34 71.83C841.38 79.53 847.54 92.62 847.54 108.53C847.54 126.25 839.59 140.37 825.98 147.81C819.31 151.41 812.38 152.69 798.78 153.46L854.73 234.32ZM797.48 143.19C822.13 143.19 836.25 130.36 836.25 108.28C836.25 94.93 830.34 83.63 821.11 78.5C814.69 74.9 806.22 73.37 795.18 73.37L781.06 73.37L781.06 143.19L797.48 143.19Z" />
					</g>
				</g>
			</g>
		</g>
	</g>
</svg>